<svg width="512px" height="512px" viewBox="0 0 512 512" xmlns="http://www.w3.org/2000/svg"><style type="text/css">
    path
    {
      fill: rgba(255,255,255);
    }
    </style><path d="M452.5 36.5L292.5 196.5L272 176L272 175.5L271.5 175C261.25 165.875 247.875 161.5 235 161.5C222.125 161.5 209.688 166.312 200 176L197.5 178L189.5 186L184 190.5L38 304L24 315.5L196.5 488L208 474L321 329L321.5 329.5L337.5 313.5L338 313.5L338.5 313C356.75 292.438 356.875 260.875 337.5 241.5L315.5 219.5L475.5 59.5ZM235 193.5C239.938 193.375 245.375 195.062 249.5 198.5C249.688 198.625 249.812 198.875 250 199L315 264C321 270 321.562 282.75 315 291C314.75 291.312 314.75 291.688 314.5 292L309.5 296.5L217 204L222.5 198.5C225.562 195.438 230.062 193.625 235 193.5ZM192.5 224.5L287.5 319.5L193.5 439.5L170.5 416.5L205 380.5L182 358.5L148 394L127 373L189 310.5L166.5 288L104 350L72.5 318.5Z"/></svg>