<svg class="img-fluid" id="outputsvg" xmlns="http://www.w3.org/2000/svg" style="transform: none; transform-origin: 50% 50%; cursor: move; max-height: none;" width="512" height="512" viewBox="0 0 5120 5120"><style type="text/css"><![CDATA[
    path
    {
      fill: rgba(255,255,255);
    }
    ]]></style><g id="l3MvHgon8FSxtMFkG1Q3RpU" fill="rgb(0,0,0)" style="transform: none;"><g style="transform: none;"><path id="pKlnURwe6" d="M295 4951 c-41 -10 -66 -25 -95 -56 -22 -23 -25 -36 -25 -95 0 -65 2 -71 34 -104 19 -19 50 -38 70 -43 l36 -9 5 -2114 5 -2115 26 -55 c37 -80 81 -125 157 -162 66 -33 68 -33 212 -33 144 0 146 0 212 33 76 37 120 82 157 162 l26 55 0 545 0 545 -26 55 c-37 78 -81 125 -153 160 -54 27 -75 31 -179 37 l-117 6 0 479 0 478 400 0 400 0 0 480 0 480 -400 0 -400 0 0 480 0 480 480 0 480 0 0 -1445 0 -1445 -20 0 c-29 0 -70 -23 -100 -55 -22 -23 -25 -36 -25 -95 0 -65 2 -71 34 -104 20 -21 50 -38 77 -45 61 -15 3213 -15 3269 0 71 19 115 77 115 149 0 72 -50 137 -112 146 l-38 7 2 1445 3 1446 35 9 c65 16 110 76 110 147 0 75 -46 132 -120 149 -52 12 -4486 14 -4535 2z m2265 -791 l0 -480 -240 0 -240 0 0 -481 0 -481 273 3 272 4 67 33 c76 37 120 82 157 162 l26 55 3 833 3 832 799 0 800 0 0 -1120 0 -1120 -1280 0 -1280 0 0 1120 0 1120 320 0 320 0 0 -480z"></path></g></g></svg>