<svg version="1.1" xmlns="http://www.w3.org/2000/svg" viewBox="0 0 512 512" xmlns:xlink="http://www.w3.org/1999/xlink" enable-background="new 0 0 470 470" width="512" height="512"><style type="text/css">
    path
    {
      fill: rgba(255,255,255);
    }
    </style><g><path d="m360.986 229.998l-29.215 -18.591 -12.564 -76.668h1.276c4.512 0 8.17 -3.658 8.17 -8.17v-33.973h3.24c22.526 0 40.851 -18.325 40.851 -40.851v-43.574c0 -4.512 -3.658 -8.17 -8.17 -8.17h-192.759c-4.512 0 -8.17 3.658 -8.17 8.17v2.723h-26.689c-4.512 0 -8.17 3.658 -8.17 8.17v43.574c0 4.512 3.658 8.17 8.17 8.17h26.689v13.617c0 4.512 3.658 8.17 8.17 8.17h9.597c-4.141 34.083 -21.833 65.146 -49.415 86.22 -3.586 2.74 -4.271 7.867 -1.532 11.452 1.608 2.105 4.039 3.21 6.498 3.21 1.73 0 3.474 -0.547 4.954 -1.679 31.63 -24.166 51.736 -59.989 55.952 -99.204h9.866v33.974c0 4.512 3.658 8.17 8.17 8.17h1.276l-12.564 76.668 -29.215 18.591c-12.464 7.933 -22.228 25.719 -22.228 40.493v189.613c0 28.615 23.281 51.895 51.895 51.895h126.25c28.615 0 51.895 -23.281 51.895 -51.895v-189.613c-0.002 -14.774 -9.766 -32.561 -22.231 -40.494zm5.888 230.107c0 19.605 -15.949 35.555 -35.555 35.555h-126.25c-19.605 0 -35.555 -15.95 -35.555 -35.555v-189.613c0 -9.257 6.851 -21.737 14.661 -26.707l32.3 -20.554c1.963 -1.249 3.301 -3.276 3.677 -5.572l13.588 -82.919h68.911l13.588 82.919c0.376 2.295 1.714 4.323 3.677 5.572l32.3 20.554c7.81 4.971 14.661 17.45 14.661 26.708v189.612zm-186.889 -383.85v-59.915h176.419v35.404c0 13.516 -10.995 24.511 -24.511 24.511h-151.908zm-16.34 -21.787h-18.519v-27.234h18.519v27.234zm148.668 38.128v25.804h-88.238v-25.804h88.238z"/><path d="m291.184 208.167h-45.979c-4.512 0 -8.17 3.658 -8.17 8.17s3.658 8.17 8.17 8.17h45.979c4.512 0 8.17 -3.658 8.17 -8.17s-3.658 -8.17 -8.17 -8.17z"/><path d="m194.025 278.662h148.338c4.512 0 8.17 -3.658 8.17 -8.17 0 -4.512 -3.658 -8.17 -8.17 -8.17h-148.338c-4.512 0 -8.17 3.658 -8.17 8.17 0 4.512 3.658 8.17 8.17 8.17z"/><path d="m194.025 435.594h148.338c4.512 0 8.169 -3.657 8.17 -8.169 0 -4.513 -3.658 -8.171 -8.17 -8.171h-148.338c-4.512 0 -8.17 3.658 -8.17 8.17 0.001 4.513 3.658 8.17 8.17 8.17z"/></g></svg>