<svg version="1.1" id="Capa_1" xmlns="http://www.w3.org/2000/svg" xmlns:xlink="http://www.w3.org/1999/xlink" x="0px" y="0px" viewBox="0 0 512 512" style="enable-background:new 0 0 59 59;" xml:space="preserve" width="512" height="512"><style type="text/css"><![CDATA[
    path
    {
      fill: rgba(255,255,255);
    }
    ]]></style><g><path d="M494.644 494.644h-17.356v-34.712h-17.356V52.068h17.356V17.356h17.356c4.799 0 8.678 -3.879 8.678 -8.678s-3.879 -8.678 -8.678 -8.678h-17.356H34.712H17.356C12.557 0 8.678 3.879 8.678 8.678s3.879 8.678 8.678 8.678h17.356v34.712h17.356v407.864H34.712v34.712H17.356c-4.799 0 -8.678 3.879 -8.678 8.678s3.879 8.678 8.678 8.678h17.356h442.576h17.356c4.799 0 8.678 -3.879 8.678 -8.678S499.443 494.644 494.644 494.644zM52.068 17.356h407.864v17.356H52.068V17.356zM69.424 52.068h373.153v407.864H69.424V52.068zM52.068 494.644v-17.356h407.864v17.356H52.068z"/><path d="M78.102 451.254h173.559V260.339H78.102V451.254zM95.458 277.695h138.847v156.203H95.458V277.695z"/><path d="M78.102 251.661h173.559V60.746H78.102V251.661zM95.458 78.102h138.847v156.203H95.458V78.102z"/><path d="M260.339 451.254h173.559V260.339H260.339V451.254zM277.695 277.695h138.847v156.203H277.695V277.695z"/><path d="M260.339 251.661h173.559V60.746H260.339V251.661zM277.695 78.102h138.847v156.203H277.695V78.102z"/><path d="M124.034 106.678l-17.356 17.356c-3.393 3.393 -3.393 8.878 0 12.271C108.37 137.997 110.592 138.847 112.814 138.847s4.443 -0.85 6.135 -2.543l17.356 -17.356c3.393 -3.393 3.393 -8.878 0 -12.271S127.427 103.285 124.034 106.678z"/><path d="M210.814 176.102l-17.356 17.356c-3.393 3.393 -3.393 8.878 0 12.271C195.15 207.421 197.372 208.271 199.593 208.271s4.443 -0.85 6.135 -2.543l17.356 -17.356c3.393 -3.393 3.393 -8.878 0 -12.271S214.207 172.709 210.814 176.102z"/><path cx="17" cy="11" r="1" d="M156.203 95.458A8.678 8.678 0 0 1 147.525 104.136A8.678 8.678 0 0 1 138.847 95.458A8.678 8.678 0 0 1 156.203 95.458z"/><path cx="13" cy="11" r="1" d="M121.492 95.458A8.678 8.678 0 0 1 112.814 104.136A8.678 8.678 0 0 1 104.136 95.458A8.678 8.678 0 0 1 121.492 95.458z"/><path cx="21" cy="25" r="1" d="M190.915 216.949A8.678 8.678 0 0 1 182.237 225.627A8.678 8.678 0 0 1 173.559 216.949A8.678 8.678 0 0 1 190.915 216.949z"/><path cx="25" cy="25" r="1" d="M225.627 216.949A8.678 8.678 0 0 1 216.949 225.627A8.678 8.678 0 0 1 208.271 216.949A8.678 8.678 0 0 1 225.627 216.949z"/><path d="M306.271 106.678l-17.356 17.356c-3.393 3.393 -3.393 8.878 0 12.271C290.608 137.997 292.829 138.847 295.051 138.847s4.443 -0.85 6.135 -2.543l17.356 -17.356c3.393 -3.393 3.393 -8.878 0 -12.271S309.665 103.285 306.271 106.678z"/><path d="M393.051 176.102l-17.356 17.356c-3.393 3.393 -3.393 8.878 0 12.271C377.387 207.421 379.609 208.271 381.831 208.271s4.443 -0.85 6.135 -2.543l17.356 -17.356c3.393 -3.393 3.393 -8.878 0 -12.271S396.444 172.709 393.051 176.102z"/><path cx="38" cy="11" r="1" d="M338.441 95.458A8.678 8.678 0 0 1 329.763 104.136A8.678 8.678 0 0 1 321.085 95.458A8.678 8.678 0 0 1 338.441 95.458z"/><path cx="34" cy="11" r="1" d="M303.729 95.458A8.678 8.678 0 0 1 295.051 104.136A8.678 8.678 0 0 1 286.373 95.458A8.678 8.678 0 0 1 303.729 95.458z"/><path cx="42" cy="25" r="1" d="M373.153 216.949A8.678 8.678 0 0 1 364.475 225.627A8.678 8.678 0 0 1 355.797 216.949A8.678 8.678 0 0 1 373.153 216.949z"/><path cx="46" cy="25" r="1" d="M407.864 216.949A8.678 8.678 0 0 1 399.186 225.627A8.678 8.678 0 0 1 390.508 216.949A8.678 8.678 0 0 1 407.864 216.949z"/><path d="M306.271 306.271l-17.356 17.356c-3.393 3.393 -3.393 8.878 0 12.271C290.608 337.59 292.829 338.441 295.051 338.441s4.443 -0.85 6.135 -2.543l17.356 -17.356c3.393 -3.393 3.393 -8.878 0 -12.271S309.665 302.878 306.271 306.271z"/><path d="M393.051 375.695l-17.356 17.356c-3.393 3.393 -3.393 8.878 0 12.271C377.387 407.014 379.609 407.864 381.831 407.864s4.443 -0.85 6.135 -2.543l17.356 -17.356c3.393 -3.393 3.393 -8.878 0 -12.271S396.444 372.302 393.051 375.695z"/><path cx="38" cy="34" r="1" d="M338.441 295.051A8.678 8.678 0 0 1 329.763 303.729A8.678 8.678 0 0 1 321.085 295.051A8.678 8.678 0 0 1 338.441 295.051z"/><path cx="34" cy="34" r="1" d="M303.729 295.051A8.678 8.678 0 0 1 295.051 303.729A8.678 8.678 0 0 1 286.373 295.051A8.678 8.678 0 0 1 303.729 295.051z"/><path cx="42" cy="48" r="1" d="M373.153 416.542A8.678 8.678 0 0 1 364.475 425.22A8.678 8.678 0 0 1 355.797 416.542A8.678 8.678 0 0 1 373.153 416.542z"/><path cx="46" cy="48" r="1" d="M407.864 416.542A8.678 8.678 0 0 1 399.186 425.22A8.678 8.678 0 0 1 390.508 416.542A8.678 8.678 0 0 1 407.864 416.542z"/><path d="M124.034 306.271l-17.356 17.356c-3.393 3.393 -3.393 8.878 0 12.271C108.37 337.59 110.592 338.441 112.814 338.441s4.443 -0.85 6.135 -2.543l17.356 -17.356c3.393 -3.393 3.393 -8.878 0 -12.271S127.427 302.878 124.034 306.271z"/><path d="M210.814 375.695l-17.356 17.356c-3.393 3.393 -3.393 8.878 0 12.271C195.15 407.014 197.372 407.864 199.593 407.864s4.443 -0.85 6.135 -2.543l17.356 -17.356c3.393 -3.393 3.393 -8.878 0 -12.271S214.207 372.302 210.814 375.695z"/><path cx="17" cy="34" r="1" d="M156.203 295.051A8.678 8.678 0 0 1 147.525 303.729A8.678 8.678 0 0 1 138.847 295.051A8.678 8.678 0 0 1 156.203 295.051z"/><path cx="13" cy="34" r="1" d="M121.492 295.051A8.678 8.678 0 0 1 112.814 303.729A8.678 8.678 0 0 1 104.136 295.051A8.678 8.678 0 0 1 121.492 295.051z"/><path cx="21" cy="48" r="1" d="M190.915 416.542A8.678 8.678 0 0 1 182.237 425.22A8.678 8.678 0 0 1 173.559 416.542A8.678 8.678 0 0 1 190.915 416.542z"/><path cx="25" cy="48" r="1" d="M225.627 416.542A8.678 8.678 0 0 1 216.949 425.22A8.678 8.678 0 0 1 208.271 416.542A8.678 8.678 0 0 1 225.627 416.542z"/></g><g/><g/><g/><g/><g/><g/><g/><g/><g/><g/><g/><g/><g/><g/><g/></svg>